<svg version="1.1" id="Layer_1" xmlns:x="ns_extend;" xmlns:i="ns_ai;" xmlns:graph="ns_graphs;" xmlns="http://www.w3.org/2000/svg" xmlns:xlink="http://www.w3.org/1999/xlink" x="0px" y="0px" width="150" height="27" viewBox="0 0 307.5 55.6" style="enable-background:new 0 0 307.5 55.6;" xml:space="preserve">
 <style type="text/css">
  .st0{fill:#171717;}
 </style>
 <metadata>
  <sfw xmlns="ns_sfw;">
   <slices>
   </slices>
   <sliceSourceBounds bottomLeftOrigin="true" height="55.6" width="307.5" x="0.2" y="-214.3">
   </sliceSourceBounds>
  </sfw>
 </metadata>
 <g>
  <polygon class="st0" points="26.9,12.3 16.4,33.2 6,12.3 0,12.3 16.4,43.8 32.9,12.3 	">
  </polygon>
  <g>
   <path class="st0" d="M31.7,27.8c0-9,6.8-16,16.2-16c9.3,0,16.1,7.1,16.1,16c0,9-6.8,16-16.1,16C38.4,43.8,31.7,36.8,31.7,27.8
			 M58.4,27.8c0-6.2-4.2-11-10.6-11c-6.3,0-10.6,4.9-10.6,11c0,6.2,4.3,11,10.6,11C54.2,38.8,58.4,34,58.4,27.8">
   </path>
   <path class="st0" d="M67.3,27.8c0-9,6.9-16,15.6-16S98,18,98.1,29.1H72.8c0.5,5.5,4.8,9.7,10.4,9.7c3.9,0,7.1-1.7,9.1-3.7l3.4,3.7
			c-2.7,2.8-7.1,5-12.5,5C74.1,43.8,67.3,36.8,67.3,27.8 M73.1,24.4h19c-0.7-5.1-4.7-7.8-9.5-7.8C78.1,16.7,74.2,19.7,73.1,24.4">
   </path>
   <path class="st0" d="M99.8,37.6l4.4-2.9c1.8,2.7,4.4,4.3,8,4.3c3.4,0,6.5-1.6,6.5-3.9c0-2.4-2.1-3.7-6.2-5l-2.7-0.9
			c-6.1-2.1-8.3-5.5-8.3-9.2c0-4.7,4.5-8.3,10.9-8.3c4.5,0,8.3,1.8,10.4,5.6l-4.4,2.4c-1.1-2.1-3.4-3.2-6.1-3.2
			c-2.6,0-5.2,1.2-5.2,3.4c0,1.9,1.3,3.4,5.4,4.7l2.9,0.9c5.9,1.9,9.1,4.7,9.1,9.3c0,5-4.7,8.9-12.3,8.9
			C107,43.8,102.6,41.8,99.8,37.6">
   </path>
   <path class="st0" d="M124.4,12.3h6.2V5.6l5.3-2.7v9.3h9.4l-1.2,4.9h-8.2v16.4c0,3.2,1.2,5,4.6,5h4.2v4.9h-4.7c-6,0-9.4-3.1-9.4-9
			V17.1h-5L124.4,12.3z">
   </path>
   <path class="st0" d="M171.7,40.2c-2.6,2.4-6.1,3.6-9.9,3.6c-9.1,0-15.9-7-15.9-16s6.7-16,15.9-16c3.8,0,7.3,1.2,9.9,3.6v-3.1h5.3
			v31.1h-5.3V40.2z M171.7,33.8V21.8c-1.8-2.9-5.3-5-9.8-5c-6.1,0-10.4,4.9-10.4,11s4.4,11,10.4,11
			C166.4,38.8,169.9,36.7,171.7,33.8">
   </path>
   <rect x="184.1" class="st0" width="5.3" height="43.3">
   </rect>
   <path class="st0" d="M196.5,12.3h5.3v3.1c2.5-2.4,6-3.6,9.9-3.6c9.1,0,15.9,7,15.9,16c0,9-6.7,16-15.9,16c-3.9,0-7.3-1.2-9.9-3.6
			v15.4h-5.3V12.3z M201.9,21.8v11.9c1.7,2.9,5.3,5,9.8,5c6.1,0,10.4-4.9,10.4-11c0-6.2-4.4-11-10.4-11
			C207.2,16.8,203.6,18.9,201.9,21.8">
   </path>
   <rect x="232.6" y="12.3" class="st0" width="5.3" height="31.1">
   </rect>
   <path class="st0" d="M245.1,12.3h5.3v3.5c2.4-3,6-4,9.6-4c7,0,12,4.9,12,12.6v19h-5.3V24.7c0-4.5-3-7.9-7.8-7.9
			c-4.4,0-7.3,2.4-8.5,6.5v20.1h-5.3V12.3z">
   </path>
   <path class="st0" d="M276.7,27.8c0-9,6.9-16,15.6-16c8.7,0,15,6.3,15.2,17.4h-25.2c0.5,5.5,4.8,9.7,10.4,9.7
			c3.9,0,7.1-1.7,9.1-3.7l3.4,3.7c-2.7,2.8-7.1,5-12.5,5C283.5,43.8,276.7,36.8,276.7,27.8 M282.5,24.4h19c-0.7-5.1-4.7-7.8-9.5-7.8
			C287.5,16.7,283.6,19.7,282.5,24.4">
   </path>
  </g>
 </g>
</svg>