<svg width="410" height="400" viewBox="0 0 410 400" fill="none" xmlns="http://www.w3.org/2000/svg">
<path d="M409.24 319.49C409.24 322.18 407.9 324.87 405.24 326.41L395.22 332.2L314.91 378.57C308.73 382.15 301.1 382.15 294.91 378.58L15.01 216.99L5 211.21C2.33 209.67 1 206.97 1 204.28C1 201.59 2.33 198.89 5 197.35L105.33 139.43L405.24 312.56C407.9 314.1 409.24 316.79 409.24 319.49Z" fill="#E0E8F7"/>
<path d="M409.24 269.49C409.24 272.18 407.9 274.87 405.24 276.41L395.22 282.2L314.91 328.57C308.73 332.15 301.1 332.15 294.91 328.58L15.01 166.99L5 161.21C2.33 159.67 1 156.97 1 154.28C1 151.59 2.33 148.89 5 147.35L105.33 89.4302L405.24 262.56C407.9 264.1 409.24 266.79 409.24 269.49Z" fill="white" stroke="#223893" stroke-width="1.2" stroke-linecap="round" stroke-linejoin="round"/>
<path d="M374.58 247.49L359.86 255.99L313.57 282.72C308.79 285.48 301.03 285.48 296.25 282.72L50.3804 140.78L35.6603 132.28C33.2603 130.9 32.0703 129.09 32.0703 127.28C32.0703 125.47 33.2603 123.66 35.6603 122.28L96.6703 87.06C101.45 84.3 109.2 84.3 113.99 87.06L374.58 237.49C376.59 238.65 377.75 240.12 378.06 241.62C378.52 243.71 377.35 245.89 374.58 247.49Z" fill="white" stroke="#223893" stroke-width="1.2" stroke-linecap="round" stroke-linejoin="round"/>
<path d="M378.17 241.62V269.3H378.15C378.25 271.17 377.05 273.06 374.58 274.49L313.57 309.71C308.79 312.48 301.03 312.48 296.25 309.71L35.6603 159.28C33.2603 157.9 32.0703 156.09 32.0703 154.28V127.28C32.0703 129.09 33.2603 130.9 35.6603 132.28L50.3804 140.78L296.25 282.72C301.03 285.48 308.79 285.48 313.57 282.72L359.86 255.99L374.58 247.49C377.35 245.89 378.52 243.71 378.06 241.62H378.17Z" fill="#E0E8F7" stroke="#223893" stroke-width="1.2" stroke-linecap="round" stroke-linejoin="round"/>
<path d="M60.2498 160.41L48.7197 153.75" stroke="#223893" stroke-width="1.2" stroke-linecap="round" stroke-linejoin="round"/>
<path d="M118.93 194.28L73.54 168.08" stroke="#223893" stroke-width="1.2" stroke-linecap="round" stroke-linejoin="round"/>
<path d="M156.599 216.03L130.609 201.02" stroke="#223893" stroke-width="1.2" stroke-linecap="round" stroke-linejoin="round"/>
<path d="M261.52 276.92C261.52 278.95 262.95 281.43 264.71 282.45C266.47 283.47 267.9 282.64 267.9 280.61C267.9 278.58 266.47 276.1 264.71 275.08C262.95 274.06 261.52 274.89 261.52 276.92Z" fill="#223893"/>
<path d="M244.539 267.12C244.539 269.15 245.969 271.63 247.729 272.65C249.489 273.67 250.919 272.84 250.919 270.81C250.919 268.78 249.489 266.3 247.729 265.28C245.969 264.26 244.539 265.09 244.539 267.12Z" fill="#223893"/>
<path d="M227.56 257.31C227.56 259.34 228.99 261.82 230.75 262.84C232.51 263.86 233.94 263.03 233.94 261C233.94 258.97 232.51 256.49 230.75 255.47C228.99 254.45 227.56 255.28 227.56 257.31Z" fill="#223893"/>
<path d="M409.24 269.49V294.91C409.24 297.6 407.9 300.29 405.24 301.83L314.91 354C308.73 357.57 301.1 357.57 294.91 354L5 186.63C2.33 185.09 1 182.39 1 179.7V154.28C1 156.97 2.33 159.67 5 161.21L15.01 166.99L294.91 328.58C301.1 332.15 308.73 332.15 314.91 328.57L395.22 282.2L405.24 276.41C407.9 274.87 409.24 272.18 409.24 269.49Z" fill="#E0E8F7" stroke="#223893" stroke-width="1.2" stroke-linecap="round" stroke-linejoin="round"/>
<path d="M194.47 283.84L16.6602 181.18" stroke="#223893" stroke-width="1.2" stroke-linecap="round" stroke-linejoin="round"/>
<path d="M395.22 295.44L314.91 341.81C308.73 345.39 301.1 345.39 294.91 341.82L223.13 300.38" stroke="#223893" stroke-width="1.2" stroke-linecap="round" stroke-linejoin="round"/>
<path d="M231.699 101.01V123.73C231.699 124.97 231.089 126.22 229.849 126.93L203.839 141.95C201.539 143.27 198.719 143.27 196.439 141.95L170.409 126.93C169.179 126.22 168.569 124.97 168.569 123.73V101.01C168.569 102.25 169.179 103.5 170.409 104.21L196.429 119.23C198.719 120.55 201.539 120.55 203.829 119.23L229.839 104.21C231.079 103.5 231.689 102.25 231.689 101.01H231.699Z" fill="#3D93FA" stroke="#223893" stroke-width="1.2" stroke-linecap="round" stroke-linejoin="round"/>
<path d="M231.7 123.73V179.55C231.7 180.78 231.09 182.04 229.84 182.75L203.84 197.77C201.53 199.09 198.73 199.09 196.44 197.77L170.42 182.75C169.19 182.03 168.58 180.78 168.58 179.55H168.56V123.73C168.56 124.96 169.17 126.22 170.4 126.93L196.43 141.95C198.72 143.27 201.53 143.27 203.83 141.95L229.83 126.93C231.08 126.21 231.69 124.96 231.69 123.73H231.7Z" fill="#E0E8F7" stroke="#223893" stroke-width="1.2" stroke-linecap="round" stroke-linejoin="round"/>
<path d="M231.7 155.67V179.56C231.7 180.79 231.09 182.05 229.84 182.76L203.84 197.78C201.53 199.1 198.73 199.1 196.44 197.78L170.42 182.76C169.19 182.04 168.58 180.79 168.58 179.56H168.56V155.67C168.56 156.9 169.17 158.16 170.4 158.87L196.43 173.89C198.72 175.21 201.53 175.21 203.83 173.89L229.83 158.87C231.08 158.15 231.69 156.9 231.69 155.67H231.7Z" fill="white" stroke="#223893" stroke-width="1.2" stroke-linecap="round" stroke-linejoin="round"/>
<path d="M231.7 101.01C231.7 102.25 231.09 103.5 229.85 104.21L203.84 119.23C201.54 120.55 198.72 120.55 196.44 119.23L170.42 104.21C169.19 103.5 168.58 102.25 168.58 101.01C168.58 99.77 169.19 98.5101 170.42 97.8001L196.44 82.79C198.73 81.47 201.55 81.47 203.84 82.79L229.85 97.8001C231.09 98.5101 231.7 99.76 231.7 101.01Z" fill="#80C0FF" stroke="#223893" stroke-width="1.2" stroke-linecap="round" stroke-linejoin="round"/>
<path d="M283.19 38.21V75.1602C283.19 76.4002 282.58 77.6501 281.34 78.3601L255.33 93.3801C253.03 94.7001 250.21 94.7001 247.93 93.3801L221.9 78.3601C220.67 77.6501 220.06 76.4002 220.06 75.1602V38.21C220.06 39.45 220.67 40.7002 221.9 41.4102L247.92 56.4302C250.21 57.7502 253.03 57.7502 255.32 56.4302L281.33 41.4102C282.57 40.7002 283.18 39.45 283.18 38.21H283.19Z" fill="#3D93FA" stroke="#223893" stroke-width="1.2" stroke-linecap="round" stroke-linejoin="round"/>
<path d="M283.19 75.1702V209.29C283.19 210.54 282.56 211.79 281.33 212.51L255.31 227.53C253.02 228.85 250.2 228.85 247.91 227.53L221.89 212.51C220.66 211.79 220.05 210.54 220.05 209.29V75.1702C220.05 76.4002 220.66 77.6601 221.89 78.3701L247.91 93.3901C250.2 94.7101 253.02 94.7101 255.31 93.3901L281.33 78.3701C282.56 77.6501 283.19 76.4002 283.19 75.1702Z" fill="#E0E8F7" stroke="#223893" stroke-width="1.2" stroke-linecap="round" stroke-linejoin="round"/>
<path d="M283.19 151.84V209.29C283.19 210.54 282.56 211.79 281.33 212.51L255.31 227.53C253.02 228.85 250.2 228.85 247.91 227.53L221.89 212.51C220.66 211.79 220.05 210.54 220.05 209.29V151.84C220.05 153.07 220.66 154.33 221.89 155.04L247.91 170.06C250.2 171.38 253.02 171.38 255.31 170.06L281.33 155.04C282.56 154.32 283.19 153.07 283.19 151.84Z" fill="white" stroke="#223893" stroke-width="1.2" stroke-linecap="round" stroke-linejoin="round"/>
<path d="M283.19 38.21C283.19 39.45 282.58 40.7002 281.34 41.4102L255.33 56.4302C253.03 57.7502 250.21 57.7502 247.93 56.4302L221.91 41.4102C220.68 40.7002 220.07 39.45 220.07 38.21C220.07 36.97 220.68 35.71 221.91 35L247.93 19.99C250.22 18.67 253.04 18.67 255.33 19.99L281.34 35C282.58 35.71 283.19 36.96 283.19 38.21Z" fill="#80C0FF" stroke="#223893" stroke-width="1.2" stroke-linecap="round" stroke-linejoin="round"/>
<path d="M338.05 116.16V142.45C338.05 143.69 337.44 144.94 336.2 145.65L310.19 160.67C307.89 161.99 305.07 161.99 302.79 160.67L276.76 145.65C275.53 144.94 274.92 143.69 274.92 142.45V116.16C274.92 117.4 275.53 118.65 276.76 119.36L302.78 134.38C305.07 135.7 307.89 135.7 310.18 134.38L336.19 119.36C337.43 118.65 338.04 117.4 338.04 116.16H338.05Z" fill="#3D93FA" stroke="#223893" stroke-width="1.2" stroke-linecap="round" stroke-linejoin="round"/>
<path d="M338.04 142.46V240.98C338.04 242.21 337.43 243.47 336.2 244.18L310.18 259.2C307.89 260.52 305.07 260.52 302.78 259.2L276.76 244.18C275.53 243.46 274.92 242.21 274.92 240.98V142.46C274.92 143.69 275.53 144.95 276.76 145.66L302.78 160.68C305.07 162 307.89 162 310.18 160.68L336.2 145.66C337.43 144.94 338.04 143.69 338.04 142.46Z" fill="#E0E8F7" stroke="#223893" stroke-width="1.2" stroke-linecap="round" stroke-linejoin="round"/>
<path d="M338.04 199.26V240.98C338.04 242.21 337.43 243.47 336.2 244.18L310.18 259.2C307.89 260.52 305.07 260.52 302.78 259.2L276.76 244.18C275.53 243.46 274.92 242.21 274.92 240.98V199.26C274.92 200.49 275.53 201.75 276.76 202.46L302.78 217.48C305.07 218.8 307.89 218.8 310.18 217.48L336.2 202.46C337.43 201.74 338.04 200.49 338.04 199.26Z" fill="white" stroke="#223893" stroke-width="1.2" stroke-linecap="round" stroke-linejoin="round"/>
<path d="M338.05 116.16C338.05 117.4 337.44 118.65 336.2 119.36L310.19 134.38C307.89 135.7 305.07 135.7 302.79 134.38L276.77 119.36C275.54 118.65 274.93 117.4 274.93 116.16C274.93 114.92 275.54 113.66 276.77 112.95L302.79 97.94C305.08 96.62 307.9 96.62 310.19 97.94L336.2 112.95C337.44 113.66 338.05 114.91 338.05 116.16Z" fill="#80C0FF" stroke="#223893" stroke-width="1.2" stroke-linecap="round" stroke-linejoin="round"/>
<path d="M156.6 98.02C156.6 100.95 155.75 103.89 154.04 106.68C152.14 109.8 149.18 112.75 145.16 115.35C144.59 115.72 144 116.08 143.39 116.43C141.1 117.75 138.63 118.9 136.02 119.88L112.55 98.02L133.99 75.45C137.35 76.56 140.52 77.9501 143.39 79.6101C152.2 84.6901 156.6 91.36 156.6 98.02Z" fill="#E0E8F7" stroke="#223893" stroke-width="1.2" stroke-linecap="round" stroke-linejoin="round"/>
<path d="M136.01 119.88C118.53 126.43 94.9197 125.28 79.5897 116.43C78.9797 116.08 78.3897 115.72 77.8197 115.35C73.7997 112.75 70.8397 109.8 68.9397 106.68C67.5397 104.4 66.7197 102.02 66.4697 99.6401L112.54 98.02L136.01 119.88Z" fill="#80C0FF" stroke="#223893" stroke-width="1.2" stroke-linecap="round" stroke-linejoin="round"/>
<path d="M133.99 75.44L112.55 98.01L66.4796 99.6302C66.4196 99.0902 66.3896 98.55 66.3896 98.01C66.3896 91.34 70.7896 84.6801 79.5996 79.6001C94.3396 71.0901 116.75 69.7 133.99 75.44Z" fill="white" stroke="#223893" stroke-width="1.2" stroke-linecap="round" stroke-linejoin="round"/>
<path d="M156.59 98.02V125.24C156.59 131.91 152.19 138.57 143.38 143.65C125.77 153.82 97.2098 153.82 79.5898 143.65C70.7898 138.56 66.3799 131.9 66.3799 125.24V98.02C66.3799 100.95 67.2298 103.89 68.9398 106.68C70.8398 109.8 73.7998 112.75 77.8198 115.35C78.3898 115.72 78.9798 116.08 79.5898 116.43C97.1998 126.6 125.76 126.6 143.38 116.43C143.99 116.08 144.58 115.72 145.15 115.35C149.17 112.75 152.13 109.8 154.03 106.68C155.74 103.88 156.59 100.95 156.59 98.02Z" fill="#3D93FA" stroke="#223893" stroke-width="1.2" stroke-linecap="round" stroke-linejoin="round"/>
</svg>
